<svg viewBox="0 0 48 48" fill="none" xmlns="http://www.w3.org/2000/svg">
  <circle cx="24" cy="24" r="14" stroke="#E0E0E0" stroke-width="4" fill="none" />
  <rect x="20" y="3" width="8" height="7" rx="1" fill="#E0E0E0" transform="rotate(0 24 24)" />
  <rect x="20" y="3" width="8" height="7" rx="1" fill="#E0E0E0" transform="rotate(45 24 24)" />
  <rect x="20" y="3" width="8" height="7" rx="1" fill="#E0E0E0" transform="rotate(90 24 24)" />
  <rect x="20" y="3" width="8" height="7" rx="1" fill="#E0E0E0" transform="rotate(135 24 24)" />
  <rect x="20" y="3" width="8" height="7" rx="1" fill="#E0E0E0" transform="rotate(180 24 24)" />
  <rect x="20" y="3" width="8" height="7" rx="1" fill="#E0E0E0" transform="rotate(225 24 24)" />
  <rect x="20" y="3" width="8" height="7" rx="1" fill="#E0E0E0" transform="rotate(270 24 24)" />
  <rect x="20" y="3" width="8" height="7" rx="1" fill="#E0E0E0" transform="rotate(315 24 24)" />
  <polygon points="20,16 20,32 34,24" fill="#E0E0E0" />
</svg>
