<svg xmlns="http://www.w3.org/2000/svg" viewBox="0 0 1024 1024">
<path fill="#ffffff" d="
  M 512.54 171.59
  Q 557.20 171.59 562.75 171.66
  Q 568.00 171.74 574.57 174.97
  C 582.48 178.88 587.27 188.04 588.64 196.49
  Q 594.00 229.47 595.28 235.88
  C 597.38 246.44 603.69 255.50 613.28 260.71
  Q 627.44 268.40 643.71 261.39
  Q 649.20 259.01 656.73 253.47
  Q 667.00 245.90 680.45 235.17
  C 690.54 227.11 703.22 224.39 714.88 230.30
  Q 719.32 232.55 729.18 242.88
  Q 734.48 248.43 787.03 302.16
  Q 792.34 307.59 794.03 311.05
  Q 799.52 322.32 795.47 334.50
  Q 794.03 338.83 788.59 345.94
  Q 774.30 364.60 770.31 369.77
  C 764.13 377.78 759.70 387.90 760.18 398.10
  C 760.95 414.66 772.61 427.65 788.75 431.02
  Q 797.46 432.85 820.76 435.93
  C 835.03 437.82 847.16 440.67 852.25 455.60
  Q 853.67 459.75 853.68 468.34
  Q 853.76 505.85 853.74 552.68
  Q 853.74 564.55 852.23 568.74
  C 847.89 580.86 838.05 586.28 825.74 587.71
  Q 803.01 590.35 786.48 593.67
  Q 783.43 594.29 778.13 597.14
  C 762.81 605.39 756.57 623.79 762.36 639.87
  Q 765.21 647.77 770.08 654.01
  Q 788.71 677.85 792.04 682.97
  C 798.33 692.65 798.99 704.75 793.17 714.78
  Q 791.46 717.74 786.17 723.15
  Q 732.99 777.56 724.15 786.66
  Q 709.88 801.35 690.05 794.66
  Q 686.50 793.47 680.19 788.54
  Q 669.61 780.28 652.92 767.81
  C 643.58 760.84 631.77 757.32 620.36 760.35
  Q 604.88 764.47 597.96 779.71
  Q 596.06 783.90 594.77 791.26
  Q 592.47 804.47 589.17 825.49
  C 586.67 841.45 577.38 852.42 560.00 852.46
  Q 559.05 852.47 512.58 852.47
  Q 466.12 852.47 465.17 852.47
  C 447.79 852.43 438.49 841.46 435.99 825.50
  Q 432.69 804.48 430.39 791.27
  Q 429.10 783.91 427.20 779.72
  Q 420.27 764.48 404.79 760.36
  C 393.38 757.34 381.57 760.86 372.23 767.83
  Q 355.55 780.30 344.97 788.56
  Q 338.66 793.49 335.11 794.68
  Q 315.28 801.38 301.01 786.69
  Q 292.17 777.59 238.98 723.19
  Q 233.69 717.78 231.98 714.82
  C 226.16 704.79 226.81 692.69 233.10 683.01
  Q 236.43 677.89 255.06 654.05
  Q 259.93 647.80 262.78 639.90
  C 268.57 623.82 262.32 605.42 247.00 597.18
  Q 241.70 594.33 238.65 593.71
  Q 222.12 590.39 199.39 587.75
  C 187.08 586.32 177.24 580.91 172.90 568.79
  Q 171.39 564.60 171.39 552.73
  Q 171.36 505.90 171.43 468.39
  Q 171.44 459.80 172.86 455.65
  C 177.95 440.72 190.08 437.86 204.35 435.97
  Q 227.65 432.89 236.36 431.06
  C 252.50 427.69 264.16 414.69 264.92 398.13
  C 265.40 387.93 260.97 377.81 254.79 369.81
  Q 250.80 364.64 236.51 345.98
  Q 231.07 338.87 229.63 334.54
  Q 225.57 322.36 231.06 311.09
  Q 232.75 307.63 238.06 302.20
  Q 290.60 248.46 295.90 242.91
  Q 305.76 232.58 310.20 230.33
  C 321.86 224.42 334.54 227.13 344.63 235.19
  Q 358.08 245.92 368.35 253.49
  Q 375.89 259.03 381.38 261.41
  Q 397.65 268.42 411.81 260.72
  C 421.39 255.51 427.70 246.45 429.80 235.89
  Q 431.08 229.48 436.44 196.50
  C 437.81 188.05 442.59 178.89 450.50 174.98
  Q 457.07 171.75 462.33 171.67
  Q 467.87 171.59 512.54 171.59
  Z"
/>
<path fill="#cccccc" d="
  M 253.08 364.04
  Q 248.97 358.23 235.96 341.93
  Q 232.96 338.16 231.52 332.13
  Q 228.02 317.50 237.99 307.23
  C 242.60 302.47 250.71 294.60 259.13 287.09
  Q 263.80 282.93 266.64 279.01
  Q 270.52 273.65 273.01 271.59
  Q 273.50 271.18 289.32 255.00
  C 295.37 248.81 301.16 241.82 307.92 235.67
  Q 313.29 230.79 319.38 230.19
  Q 327.13 229.43 334.16 231.91
  A 8.11 8.08 -18.6 0 1 335.86 232.75
  Q 344.20 238.19 349.22 242.75
  Q 351.55 244.87 355.41 247.40
  Q 357.84 248.99 361.42 252.15
  A 5.59 5.53 -9.3 0 0 362.42 252.86
  Q 365.67 254.65 368.07 257.29
  A 5.09 4.85 -5.8 0 0 369.37 258.30
  Q 382.38 265.24 390.78 267.18
  Q 393.02 267.69 400.35 267.63
  A 10.05 9.97 34.1 0 0 403.79 266.98
  Q 405.57 266.31 412.21 264.19
  Q 413.95 263.64 418.25 260.84
  A 4.99 4.75 -84.6 0 0 419.24 259.98
  Q 428.60 249.04 432.88 235.46
  Q 433.78 232.61 434.01 230.22
  C 434.23 227.89 435.00 225.93 435.40 223.17
  C 435.81 220.42 435.86 217.18 436.61 213.96
  Q 437.23 211.30 437.50 206.76
  A 16.81 15.97 -38.3 0 1 437.88 204.10
  C 438.89 199.52 439.16 196.18 440.38 192.39
  Q 444.23 180.39 455.92 176.05
  Q 460.65 174.29 474.48 174.19
  Q 523.31 173.81 564.01 175.11
  A 0.53 0.48 47.9 0 1 564.11 175.12
  L 570.35 176.28
  A 2.11 2.03 62.0 0 1 570.87 176.45
  Q 582.94 181.86 585.70 194.76
  Q 588.01 205.52 589.08 214.93
  C 589.41 217.79 590.69 221.54 591.16 225.07
  Q 592.35 234.01 593.80 239.96
  Q 595.71 247.75 600.68 253.69
  C 603.33 256.85 606.23 260.37 609.05 261.70
  Q 613.15 263.65 615.82 265.20
  A 6.10 6.00 -20.7 0 0 617.02 265.73
  Q 624.00 267.99 631.60 267.44
  C 634.71 267.22 637.96 265.82 641.28 265.26
  A 11.16 11.15 -60.7 0 0 643.59 264.61
  C 647.81 262.92 652.29 261.49 655.80 258.80
  Q 667.87 249.55 684.76 236.89
  Q 686.42 235.65 689.20 234.15
  Q 690.46 233.47 693.05 231.72
  A 4.39 4.35 -68.2 0 1 694.48 231.10
  Q 703.79 228.94 713.36 232.46
  A 3.58 3.48 -7.8 0 1 714.96 233.64
  Q 716.44 235.62 719.31 238.05
  Q 721.36 239.78 723.66 242.38
  Q 733.85 253.87 742.86 263.70
  C 751.71 273.35 759.14 279.80 769.77 289.72
  C 771.79 291.61 774.77 295.20 777.73 297.77
  Q 782.96 302.33 788.16 308.13
  C 795.80 316.66 796.57 330.57 789.53 339.76
  Q 783.83 347.20 778.19 354.72
  C 776.50 356.98 774.19 358.59 772.75 360.91
  Q 770.05 365.25 767.32 369.05
  C 764.74 372.64 763.54 375.54 761.57 379.60
  C 756.13 390.78 757.30 404.11 762.87 415.13
  Q 768.01 425.31 777.94 430.68
  Q 782.07 432.92 792.78 435.14
  Q 801.35 436.92 826.43 439.30
  Q 829.00 439.54 836.41 442.20
  C 843.63 444.80 848.01 450.84 850.02 457.99
  Q 850.79 460.73 850.79 467.21
  C 850.78 477.78 851.00 484.02 850.55 494.91
  Q 850.02 507.63 850.20 514.97
  Q 850.68 534.61 850.46 553.65
  C 850.32 566.48 849.01 573.50 839.64 580.26
  Q 836.63 582.43 826.63 584.33
  Q 808.61 587.76 793.70 589.17
  Q 792.12 589.32 784.61 591.48
  Q 779.56 592.93 776.07 595.17
  Q 765.34 602.05 760.36 613.85
  C 755.87 624.49 757.79 637.29 762.50 647.28
  C 766.26 655.24 771.94 661.82 779.28 671.09
  C 783.13 675.95 786.66 679.61 789.46 684.03
  C 794.23 691.54 795.42 698.71 793.20 707.22
  C 790.36 718.09 780.97 722.03 773.45 730.70
  Q 768.72 736.16 761.78 742.38
  C 756.42 747.18 752.81 752.57 747.40 757.58
  Q 742.61 762.02 737.00 767.82
  C 732.67 772.29 727.88 776.72 723.90 781.90
  Q 720.80 785.92 716.18 789.69
  C 707.80 796.52 696.05 795.94 686.91 790.80
  C 683.78 789.04 679.43 786.17 676.37 783.68
  Q 659.44 769.89 652.27 765.02
  Q 646.53 761.12 639.10 758.74
  Q 631.45 756.28 624.93 756.98
  C 607.33 758.89 596.62 772.05 593.01 788.52
  Q 591.89 793.62 586.82 823.08
  C 585.71 829.53 584.05 838.07 578.09 843.33
  C 571.33 849.28 565.15 849.86 556.38 849.87
  Q 505.47 849.92 463.87 849.84
  C 458.82 849.83 452.84 848.23 448.67 845.12
  Q 447.85 844.51 446.01 842.47
  Q 440.16 836.03 439.19 829.49
  C 438.23 822.97 437.30 818.58 437.24 814.21
  C 437.21 812.34 436.55 810.77 436.29 808.93
  Q 434.44 795.90 434.25 794.53
  A 1.66 1.56 30.7 0 0 434.10 794.01
  Q 433.05 791.64 432.23 788.14
  Q 431.68 785.79 430.40 782.53
  Q 428.69 778.14 427.22 774.86
  A 3.20 3.13 12.8 0 0 426.69 774.04
  Q 426.19 773.45 422.65 769.25
  C 415.72 761.03 405.52 756.85 394.75 757.23
  Q 386.18 757.54 374.27 763.01
  A 3.00 2.84 8.4 0 0 373.44 763.59
  Q 371.30 765.69 361.88 772.37
  Q 359.44 774.10 344.05 786.44
  C 341.93 788.14 340.72 789.63 338.09 790.87
  Q 332.76 793.38 327.52 794.28
  C 316.05 796.26 307.13 790.56 299.60 782.73
  Q 267.26 749.14 261.59 743.41
  Q 249.82 731.53 241.65 723.24
  Q 234.58 716.08 232.81 712.05
  C 229.35 704.19 229.85 693.41 234.26 686.03
  Q 236.81 681.76 239.63 678.73
  Q 242.58 675.57 245.30 671.74
  C 249.90 665.28 255.83 658.50 260.97 650.38
  Q 262.88 647.36 263.87 644.23
  Q 263.94 643.98 266.47 637.69
  A 11.37 11.10 -32.8 0 0 267.25 634.28
  L 267.75 627.09
  A 6.41 6.32 39.7 0 0 267.54 625.00
  C 266.46 621.11 265.64 616.04 263.38 611.76
  Q 260.34 605.97 259.26 604.68
  Q 252.61 596.67 242.69 592.76
  Q 241.17 592.16 237.09 590.84
  A 20.25 19.43 -31.8 0 0 233.19 590.01
  Q 228.78 589.52 222.29 588.47
  Q 204.68 585.62 197.97 584.76
  Q 191.12 583.88 186.26 581.56
  Q 185.13 581.02 179.97 576.23
  A 3.52 3.32 -85.6 0 1 179.34 575.45
  Q 174.77 567.63 174.75 561.49
  Q 174.66 533.91 174.89 515.66
  C 175.07 500.71 174.25 484.89 174.45 468.01
  Q 174.54 460.42 176.92 454.94
  Q 177.76 453.02 185.00 444.53
  A 2.43 2.36 -81.6 0 1 185.81 443.91
  Q 189.97 441.94 194.21 441.00
  C 202.69 439.12 211.87 437.53 220.83 436.75
  C 231.48 435.83 242.77 434.47 252.02 428.84
  Q 260.08 423.93 264.95 412.94
  Q 265.79 411.03 267.36 403.89
  C 270.07 391.54 263.30 377.74 255.95 366.48
  A 1.78 1.75 -4.6 0 0 255.17 365.83
  Q 253.99 365.34 253.08 364.04
  Z"
/>
<path fill="#ffffff" d="
  M 441.43 354.64
  Q 453.81 348.51 467.04 345.37
  Q 487.80 340.43 507.04 339.06
  C 520.93 338.08 534.21 340.38 548.21 343.06
  Q 553.62 344.10 556.12 345.04
  C 560.21 346.58 565.19 347.07 568.48 348.50
  Q 581.58 354.18 591.37 359.23
  C 596.19 361.71 599.61 364.84 604.45 367.02
  A 7.58 7.43 -13.6 0 1 605.89 367.88
  Q 623.44 381.10 627.87 385.38
  Q 633.34 390.65 636.26 393.50
  A 5.39 5.08 7.8 0 1 637.10 394.54
  C 639.35 398.17 642.45 400.95 645.14 404.37
  Q 651.90 412.97 656.18 418.70
  A 5.10 4.91 15.3 0 1 656.75 419.66
  Q 657.92 422.27 659.98 424.96
  A 10.45 10.40 13.9 0 1 661.12 426.84
  Q 667.07 439.48 671.66 449.53
  C 673.08 452.64 673.91 457.80 675.13 461.54
  Q 678.91 473.11 679.99 479.21
  C 684.96 507.32 683.97 537.05 675.46 564.51
  Q 673.62 570.44 671.73 574.23
  Q 664.78 588.11 660.06 598.19
  A 30.92 30.69 -14.5 0 1 657.08 603.21
  C 652.61 609.31 648.77 615.67 643.80 621.24
  Q 634.02 632.20 631.58 634.59
  Q 613.04 652.75 589.35 664.13
  Q 572.42 672.26 553.03 677.60
  Q 546.89 679.29 541.63 679.62
  C 537.49 679.88 531.53 681.05 526.18 681.00
  Q 511.70 680.89 506.46 681.16
  Q 501.41 681.42 497.95 680.86
  C 491.64 679.84 484.82 679.99 478.80 678.55
  C 474.34 677.49 469.61 677.13 464.72 675.54
  Q 454.91 672.35 442.08 667.29
  C 438.04 665.70 435.27 663.86 431.56 662.09
  Q 430.16 661.42 427.52 659.72
  Q 419.59 654.60 410.36 648.04
  Q 405.02 644.25 401.50 640.85
  C 397.51 636.99 390.59 631.27 386.12 626.07
  C 381.08 620.21 378.78 617.72 373.94 611.07
  Q 369.11 604.44 364.57 596.97
  C 363.35 594.96 362.45 592.31 361.08 589.79
  Q 355.44 579.43 352.24 570.02
  C 340.38 535.13 338.65 495.33 349.41 459.60
  Q 350.78 455.05 353.24 449.75
  Q 359.08 437.15 364.27 425.79
  Q 365.70 422.67 371.92 414.02
  C 375.01 409.71 377.55 405.60 380.93 401.67
  Q 392.76 387.89 406.87 375.81
  A 5.74 5.70 9.7 0 1 407.68 375.24
  Q 410.21 373.80 412.49 371.76
  A 6.62 6.53 10.2 0 1 413.85 370.83
  Q 416.32 369.59 418.41 368.17
  Q 428.93 361.03 439.21 356.20
  Q 440.30 355.68 440.98 354.97
  A 1.41 1.37 7.9 0 1 441.43 354.64
  Z"
/>
<path fill="#1b1c1b" d="
  M 514.65 341.43
  C 528.90 341.60 543.75 344.13 557.51 347.88
  Q 578.19 353.51 596.39 364.25
  Q 630.78 384.54 653.06 418.36
  C 675.92 453.07 684.73 496.63 678.21 537.43
  C 672.35 574.07 654.51 607.93 627.29 633.24
  C 595.54 662.76 553.85 678.96 510.63 678.45
  C 467.40 677.93 426.11 660.74 395.08 630.47
  C 368.46 604.52 351.44 570.24 346.45 533.47
  C 340.91 492.53 350.76 449.19 374.44 415.04
  Q 397.52 381.76 432.38 362.29
  Q 450.83 351.99 471.64 346.86
  C 485.49 343.43 500.40 341.26 514.65 341.43
  Z"
/>
<path fill="#ffffff" d="
  M 522.49 366.61
  C 560.01 369.19 593.78 386.08 618.88 413.92
  Q 625.87 421.68 632.74 432.26
  C 659.69 473.75 663.47 527.61 641.99 572.30
  Q 626.85 603.78 598.89 624.79
  C 570.63 646.02 537.74 655.67 502.79 653.27
  C 467.85 650.87 436.58 636.81 411.49 611.91
  Q 386.67 587.27 375.98 554.02
  C 360.81 506.81 371.92 453.97 404.30 416.56
  Q 412.55 407.02 420.54 400.29
  C 449.21 376.14 484.97 364.03 522.49 366.61
  Z"
/>
<path fill="#cccccc" d="
  M 506.97 651.42
  Q 486.15 649.98 472.31 645.88
  Q 455.94 641.03 442.07 632.91
  Q 436.97 629.92 429.01 624.39
  Q 422.55 619.90 417.03 614.42
  Q 406.86 604.34 404.11 601.03
  Q 395.06 590.08 389.98 580.81
  Q 387.29 575.89 383.34 567.40
  C 382.50 565.60 381.79 562.98 380.44 560.91
  A 3.68 3.66 19.8 0 1 379.97 559.92
  C 372.26 535.36 369.73 510.93 374.60 486.36
  Q 376.45 477.02 381.13 462.67
  Q 383.78 454.55 390.25 442.18
  Q 394.92 433.25 403.10 423.85
  Q 419.41 405.11 438.74 391.49
  C 445.02 387.06 450.52 384.51 458.41 380.79
  C 468.61 375.97 480.38 373.35 491.26 371.42
  C 506.12 368.78 520.06 369.11 534.57 371.83
  C 546.01 373.97 552.05 374.55 560.20 378.01
  C 571.54 382.82 583.49 388.62 593.53 396.40
  C 596.96 399.06 603.17 403.11 608.07 407.67
  Q 623.67 422.17 634.45 441.57
  Q 641.58 454.41 645.71 466.58
  C 653.46 489.43 654.49 514.33 650.36 538.04
  Q 647.86 552.35 642.01 565.55
  C 638.23 574.09 632.94 584.66 626.93 592.77
  C 620.03 602.11 613.35 609.72 604.47 616.18
  C 600.52 619.04 597.66 622.20 593.19 625.57
  Q 584.00 632.47 581.91 633.44
  C 567.87 639.94 558.56 644.51 546.45 647.16
  C 539.53 648.67 531.43 650.62 525.09 650.82
  C 518.42 651.02 512.63 651.82 506.97 651.42
  Z"
/>
<path fill="#ffffff" d="
  M 573.34 532.08
  C 563.58 537.76 554.55 544.43 544.10 550.07
  Q 537.96 553.39 530.50 558.48
  C 528.22 560.03 524.93 561.56 522.25 563.27
  Q 510.20 570.95 498.66 577.90
  C 489.68 583.31 481.71 587.46 471.19 583.70
  Q 459.95 579.68 457.28 566.70
  Q 456.94 565.06 456.65 558.35
  C 456.26 549.49 456.97 541.06 456.78 531.49
  Q 456.64 524.79 456.68 513.05
  Q 456.80 470.09 456.87 464.25
  C 456.90 461.33 457.02 457.64 458.24 454.58
  C 460.22 449.57 462.70 444.64 466.89 441.70
  A 1.05 1.03 -72.2 0 1 467.08 441.60
  L 473.33 439.14
  A 1.71 1.61 28.2 0 1 473.77 439.02
  C 479.01 438.25 485.95 437.87 490.19 441.34
  Q 497.20 447.06 503.89 450.94
  Q 513.86 456.73 515.07 457.70
  Q 517.56 459.70 522.42 462.36
  Q 525.74 464.18 529.91 466.85
  Q 540.82 473.85 543.43 475.63
  C 547.59 478.47 552.11 480.84 557.36 484.34
  Q 559.64 485.86 567.15 490.67
  Q 573.51 494.74 573.73 494.88
  Q 577.67 497.27 579.66 499.85
  Q 584.83 506.53 583.44 516.14
  Q 583.43 516.21 582.17 520.88
  Q 581.43 523.63 580.26 525.34
  Q 577.20 529.83 573.34 532.08
  Z"
/>
<path fill="#1b1c1b" d="
  M 489.19 443.66
  L 572.85 495.98
  A 18.97 18.97 0.0 0 1 572.73 528.22
  L 488.71 579.96
  A 18.97 18.97 0.0 0 1 459.80 563.74
  L 460.16 459.68
  A 18.97 18.97 0.0 0 1 489.19 443.66
  Z"
/>
</svg>